<?xml version="1.0" encoding="UTF-8"?> <!-- Generator: Adobe Illustrator 24.0.3, SVG Export Plug-In . SVG Version: 6.00 Build 0) -->
<svg xmlns="http://www.w3.org/2000/svg" id="Layer_1" x="0px" y="0px"
     viewBox="0 0 40 40" xml:space="preserve"> <path id="icon_phone" opacity="0.3"
                                                     d="M25.457,22.01c-0.448-0.519-1.231-0.574-1.749-0.126c-0.045,0.038-0.087,0.081-0.126,0.126 c-0.438,0.435-0.877,0.868-1.308,1.311c-0.08,0.118-0.24,0.148-0.358,0.069c-0.001-0.001-0.002-0.002-0.003-0.002 c-0.283-0.155-0.585-0.28-0.858-0.45c-1.248-0.809-2.356-1.816-3.278-2.983c-0.48-0.567-0.875-1.201-1.175-1.882 c-0.067-0.116-0.039-0.264,0.067-0.346c0.438-0.424,0.865-0.859,1.3-1.293c0.53-0.438,0.604-1.224,0.166-1.753 c-0.05-0.061-0.106-0.116-0.166-0.166c-0.342-0.347-0.685-0.686-1.027-1.031s-0.7-0.711-1.061-1.062 c-0.455-0.518-1.243-0.568-1.761-0.113c-0.04,0.035-0.078,0.073-0.114,0.113c-0.442,0.436-0.865,0.882-1.315,1.309 c-0.4,0.376-0.64,0.892-0.67,1.439c-0.038,0.899,0.123,1.797,0.472,2.626c0.663,1.726,1.622,3.322,2.832,4.719 c1.59,1.907,3.567,3.456,5.8,4.542c0.998,0.524,2.091,0.843,3.215,0.935c0.759,0.086,1.512-0.201,2.022-0.77 c0.376-0.42,0.8-0.801,1.2-1.2c0.529-0.447,0.595-1.237,0.148-1.766c-0.043-0.052-0.09-0.099-0.141-0.143 C26.866,23.409,26.162,22.708,25.457,22.01z"></path>
    <path id="icon_phone_1_" fill="#FFFFFF"
          d="M25.457,21.01c-0.448-0.519-1.231-0.574-1.749-0.126 c-0.045,0.038-0.087,0.081-0.126,0.126c-0.438,0.435-0.877,0.868-1.308,1.311c-0.08,0.118-0.24,0.148-0.358,0.069 c-0.001-0.001-0.002-0.002-0.003-0.002c-0.283-0.155-0.585-0.28-0.858-0.45c-1.248-0.809-2.356-1.816-3.278-2.983 c-0.48-0.567-0.875-1.201-1.175-1.882c-0.067-0.116-0.039-0.264,0.067-0.346c0.438-0.424,0.865-0.859,1.3-1.293 c0.53-0.438,0.604-1.224,0.166-1.753c-0.05-0.061-0.106-0.116-0.166-0.166c-0.342-0.347-0.685-0.686-1.027-1.031 s-0.7-0.711-1.061-1.062c-0.455-0.518-1.243-0.568-1.761-0.113c-0.04,0.035-0.078,0.073-0.114,0.113 c-0.442,0.436-0.865,0.882-1.315,1.309c-0.4,0.376-0.64,0.892-0.67,1.439c-0.038,0.899,0.123,1.797,0.472,2.626 c0.663,1.726,1.622,3.322,2.832,4.719c1.59,1.907,3.567,3.456,5.8,4.542c0.998,0.524,2.091,0.843,3.215,0.935 c0.759,0.086,1.512-0.201,2.022-0.77c0.376-0.42,0.8-0.801,1.2-1.2c0.529-0.447,0.595-1.237,0.148-1.766 c-0.043-0.052-0.09-0.099-0.141-0.143C26.866,22.409,26.162,21.708,25.457,21.01z"></path> </svg>
