<?xml version="1.0" encoding="UTF-8"?> <!-- Generator: Adobe Illustrator 22.0.1, SVG Export Plug-In . SVG Version: 6.00 Build 0) -->
<svg xmlns="http://www.w3.org/2000/svg" id="Layer_1" x="0px" y="0px"
     viewBox="0 0 150 150" style="enable-background:new 0 0 150 150;" xml:space="preserve"> <style type="text/css"> .st0{fill:#FFFFFF;} </style>
    <g> <path class="st0"
              d="M118.7,73.8c-1.5-1.5-3.3-2.3-5.5-2.3c-2.1,0-3.9,0.7-5.4,2.3c-1.6,1.6-2.4,3.4-2.4,5.5c0,2.2,0.8,4,2.3,5.5 c1.6,1.6,3.4,2.3,5.5,2.3c2.2,0,4-0.7,5.5-2.2c1.6-1.6,2.3-3.4,2.3-5.6C121,77.1,120.2,75.3,118.7,73.8 C118.7,73.8,118.7,73.8,118.7,73.8z"></path>
        <path class="st0"
              d="M71.1,73.9c-1.6-1.6-3.4-2.3-5.5-2.3c-2.2,0-4,0.7-5.5,2.2c-1.6,1.6-2.3,3.4-2.3,5.6c0,2.2,0.8,4,2.3,5.5 c1.6,1.6,3.4,2.3,5.5,2.3c2.2,0,4-0.7,5.5-2.2c1.6-1.6,2.3-3.4,2.3-5.6C73.4,77.2,72.7,75.4,71.1,73.9L71.1,73.9z"></path>
        <path class="st0"
              d="M75,12.6c-33.7,0-61,27.3-61,61c0,19.4,9.1,36.7,23.2,47.8v14.5c0,1.1,0,1.5,2.2,1.5c5,0,11.4-1.9,18.5-5.2 c5.4,1.6,11.2,2.5,17.1,2.5c33.7,0,61-27.3,61-61C136,39.9,108.7,12.6,75,12.6z M47.4,86.7c1.3,0,2.4,1.1,2.4,2.4v2.4 c0,1.3-1.1,2.4-2.4,2.4H25.3c-0.9,0-1.8-0.5-2.2-1.4c-0.4-0.8-0.3-1.8,0.3-2.6l14.4-18.2H26.3c-1.3,0-2.4-1.1-2.4-2.4v-2.3 c0-1.3,1.1-2.4,2.4-2.4h21.4c0.9,0,1.8,0.5,2.2,1.4c0.4,0.8,0.3,1.8-0.3,2.6L35.3,86.7H47.4z M80.3,91.6c0,1.3-1.1,2.4-2.4,2.4 h-2.4c-1,0-1.9-0.6-2.3-1.5c-2.2,1.3-4.7,1.9-7.5,1.9c-4.2,0-7.8-1.5-10.7-4.3c-2.9-2.9-4.4-6.5-4.4-10.7c0-4.2,1.5-7.8,4.3-10.7 c2.9-2.9,6.5-4.4,10.7-4.4c2.8,0,5.3,0.7,7.5,1.9c0.3-0.9,1.2-1.6,2.3-1.6h2.4c1.3,0,2.4,1.1,2.4,2.4V91.6z M93.5,91.6 c0,1.3-1.1,2.4-2.4,2.4h-2.4c-1.3,0-2.4-1.1-2.4-2.4V47.7c0-1.3,1.1-2.4,2.4-2.4h2.4c1.3,0,2.4,1.1,2.4,2.4V91.6z M113.2,94.4 c-4.2,0-7.8-1.5-10.7-4.3c-2.9-2.9-4.4-6.5-4.4-10.7c0-4.1,1.5-7.8,4.4-10.7c2.9-2.9,6.5-4.4,10.7-4.4c4.1,0,7.8,1.5,10.7,4.4 c2.9,2.9,4.4,6.5,4.4,10.7c0,4.2-1.5,7.8-4.3,10.7C121,93,117.4,94.4,113.2,94.4z"></path> </g> </svg>
